{"title":"Good.Morning.Killer.2011.WebRip.XviD- JIVE","uid":6909623,"size":517730485,"categoryP":"video","categoryS":"movies","magnet":"?xt=urn:btih:12e94eab0398130a3f1d07fe95fb723e68cfb91f&amp;dn=Good.Morning.Killer.2011.WebRip.XviD-+JIVE&amp;tr=udp%3A%2F%2Ftracker.openbittorrent.com%3A80&amp;tr=udp%3A%2F%2Fopen.demonii.com%3A1337&amp;tr=udp%3A%2F%2Ftracker.coppersurfer.tk%3A6969&amp;tr=udp%3A%2F%2Fexodus.desync.com%3A6969","seeders":2,"leechers":0,"uploader":"LegendET","files":3,"time":1324735936,"description":"[center]\n\n\n\n\nGood Morning Killer 2011 WebRip XviD-JIVE\n &lt;a href=&quot;\nhttp://www.imdb.com/title/tt1942871/&quot; rel=&quot;nofollow&quot; target=&quot;_NEW&quot;&gt;\nhttp://www.imdb.com/title/tt1942871/&lt;/a&gt;\n\nGeneral\nComplete name                    : Good.Morning.Killer.2011.WebRip.XviD-JIVE.avi\nFormat                         : AVI\nFormat/Info                      : Audio Video Interleave\nFile size                        : 494 MiB\nDuration                       : 1h 30mn\nOverall bit rate               : 760 Kbps\nWriting application              : Lavf52.52.0\n\nVideo\nID                             : 0\nFormat                         : MPEG-4 Visual\nFormat profile                 : Advanced Simple@L5\nFormat settings, BVOP            : 2\nFormat settings, QPel            : No\nFormat settings, GMC           : No warppoints\nFormat settings, Matrix          : Default (H.263)\nMuxing mode                      : Packed bitstream\nCodec ID                       : XVID\nCodec ID/Hint                    : XviD\nDuration                       : 1h 30mn\nBit rate                       : 619 Kbps\nWidth                            : 704 pixels\nHeight                         : 384 pixels\nDisplay aspect ratio           : 16:9\nFrame rate                     : 29.970 fps\nColor space                      : YUV\nChroma subsampling             : 4:2:0\nBit depth                        : 8 bits\nScan type                        : Progressive\nCompression mode               : Lossy\nBits/(Pixel*Frame)             : 0.076\nStream size                      : 402 MiB (81%)\nWriting library                  : XviD 1.2.1 (UTC 2008-12-04)\n\nAudio\nID                             : 1\nFormat                         : MPEG Audio\nFormat version                 : Version 1\nFormat profile                 : Layer 3\nMode                           : Joint stereo\nMode extension                 : MS Stereo\nCodec ID                       : 55\nCodec ID/Hint                    : MP3\nDuration                       : 1h 30mn\nBit rate mode                    : Constant\nBit rate                       : 128 Kbps\nChannel(s)                     : 2 channels\nSampling rate                    : 48.0 KHz\nCompression mode               : Lossy\nStream size                      : 83.1 MiB (17%)\nAlignment                        : Aligned on interleaves\nInterleave, duration           : 24 ms (0.72 video frame)\nWriting library                  : LAME3.98.2\n\nStoryline\n\nfollows FBI Special Agent Ana Gray as she hunts for a kidnapper. \nAs Ana develops a rapport with the kidnapper's latest victim, \nthe suspect suddenly changes his pattern. Now Ana must race to \nfind him before he strikes again. \n\nCast\n\nCatherine Bell ... Ana Grey\nCole Hauser ... Andrew Berringer\nTitus Welliver ... Mike Donato\nWilliam Devane ... Everett Morgan Gray\nGenevieve Buechner ... Juliana Meyer-Murphy\nSuleka Mathew ... Barbara Sullivan\nAdrian Holmes ... Kyle Vernon\n\n","torrent":{"xt":"urn:btih:12e94eab0398130a3f1d07fe95fb723e68cfb91f","amp;dn":"Good.Morning.Killer.2011.WebRip.XviD-+JIVE","amp;tr":["udp%3A%2F%2Ftracker.openbittorrent.com%3A80","udp%3A%2F%2Fopen.demonii.com%3A1337","udp%3A%2F%2Ftracker.coppersurfer.tk%3A6969","udp%3A%2F%2Fexodus.desync.com%3A6969"],"infoHash":"12e94eab0398130a3f1d07fe95fb723e68cfb91f","infoHashBuffer":{"type":"Buffer","data":[18,233,78,171,3,152,19,10,63,29,7,254,149,251,114,62,104,207,185,31]},"announce":[],"urlList":[]}}